<mxfile host="app.diagrams.net" modified="2023-08-16T02:13:42.416Z" agent="Mozilla/5.0 (Windows NT 10.0; Win64; x64) AppleWebKit/537.36 (KHTML, like Gecko) Chrome/115.0.0.0 Safari/537.36" version="21.6.7" etag="_kGcpZbtmGdQ9MAmngi9" type="github">
  <diagram name="페이지-1" id="3l_TX173V35YOyoUV0Ur">
    <mxGraphModel>
      <root>
        <mxCell id="0" />
        <mxCell id="1" parent="0" />
      </root>
    </mxGraphModel>
  </diagram>
</mxfile>
